<svg width="128" height="128" viewBox="0 0 128 128" fill="none" xmlns="http://www.w3.org/2000/svg"><path d="M123.337 62.9065C121.823 62.6099 120.286 62.9201 119.006 63.78 117.945 64.4925 117.167 65.5118 116.763 66.7006L110.185 63.8281C110.198 63.378 110.205 62.9343 110.205 62.5022 110.205 58.6347 109.721 54.7945 108.766 51.0743L111.716 49.0728C113.586 50.7108 116.305 51.2006 118.684 50.1668 121.887 48.7752 123.42 45.0695 122.176 41.7303L120.787 38.0026C119.528 34.6226 115.905 32.8418 112.541 33.946 110.838 34.5051 109.468 35.698 108.683 37.3047 108.236 38.2186 108.011 39.1988 108.01 40.1837L104.663 40.6512C104.204 39.8105 103.703 38.9585 103.168 38.1098 102.615 37.2321 101.454 36.9693 100.577 37.5224 99.6989 38.0758 99.4359 39.2358 99.9892 40.1136 100.621 41.1154 101.199 42.1191 101.709 43.0976 102.221 44.0786 103.3 44.6349 104.392 44.4826L110.429 43.6399C110.989 43.5618 111.484 43.2354 111.777 42.7514 112.069 42.2674 112.129 41.6772 111.938 41.1449 111.678 40.4225 111.722 39.6447 112.058 38.9548 112.395 38.2669 112.982 37.7561 113.713 37.5162 115.13 37.0512 116.723 37.8581 117.266 39.315L118.655 43.0427C119.192 44.4854 118.534 46.1354 117.187 46.7211 115.897 47.2812 114.379 46.801 113.653 45.6044 113.386 45.1642 112.95 44.8529 112.447 44.7431 111.944 44.6332 111.418 44.7351 110.992 45.0239L105.985 48.42C105.056 49.0498 104.634 50.2013 104.933 51.2855 105.938 54.9245 106.448 58.6986 106.448 62.5025 106.448 63.1257 106.432 63.777 106.401 64.4386 106.351 65.5163 106.981 66.5298 107.967 66.9604L117.354 71.0596C117.876 71.2878 118.474 71.2665 118.978 71.0023 119.483 70.738 119.84 70.259 119.95 69.6999L120.247 68.1844C120.351 67.6561 120.654 67.1996 121.101 66.8993 121.548 66.5989 122.085 66.4905 122.614 66.5944 123.705 66.8084 124.418 67.87 124.204 68.9607L122.665 76.8056C122.557 77.3517 122.24 77.8174 121.771 78.117 121.302 78.4164 120.744 78.5071 120.201 78.3743 119.174 78.122 118.514 77.0221 118.729 75.9219L118.77 75.7122C118.881 75.1463 118.726 74.5609 118.35 74.1243 117.973 73.6871 117.413 73.4457 116.841 73.474L106.687 73.9371C105.612 73.986 104.662 74.7069 104.322 75.732 103.381 78.5722 102.133 81.3164 100.611 83.8881 100.044 84.8455 100.143 86.0594 100.858 86.9086L105.35 92.2451C105.684 92.6416 106.166 92.8824 106.683 92.9112 107.201 92.9392 107.707 92.7534 108.082 92.3964 109.089 91.4387 110.62 91.3568 111.722 92.2002 112.319 92.6567 112.701 93.318 112.801 94.0625 112.9 94.807 112.703 95.5455 112.247 96.1419L110.945 97.8431C110.01 99.0648 108.263 99.3789 107.052 98.544 106.022 97.8343 105.581 96.5116 105.981 95.3275 106.292 94.4054 105.847 93.3984 104.956 93.0071L98.485 90.1649C97.4559 89.7123 96.2548 89.968 95.4952 90.8014 92.61 93.9698 89.278 96.6692 85.5919 98.8248 84.6608 99.3684 84.1525 100.447 84.3264 101.508L85.9829 111.61C86.0751 112.172 86.4173 112.662 86.9135 112.942 87.4098 113.222 88.0057 113.261 88.535 113.05L89.9684 112.476C90.4852 112.27 91.0488 112.283 91.5553 112.515 92.0616 112.746 92.4409 113.164 92.6242 113.693 92.9704 114.693 92.405 115.845 91.364 116.261L84.0438 119.189C83.527 119.396 82.9636 119.382 82.4569 119.151 81.9508 118.92 81.5713 118.502 81.388 117.973 81.0418 116.974 81.6069 115.822 82.6472 115.405L82.8454 115.326C83.381 115.112 83.7883 114.664 83.9506 114.11 84.1127 113.557 84.012 112.96 83.6768 112.49L77.7712 104.216C77.1465 103.34 76.0245 102.933 74.9814 103.204 71.5382 104.096 67.9789 104.549 64.4017 104.549 61.5693 104.549 58.7298 104.263 55.9628 103.699 54.9064 103.484 53.8087 103.948 53.2293 104.855L47.3182 114.126C47.0118 114.606 46.9402 115.199 47.1233 115.739 47.3059 116.279 47.7238 116.706 48.2591 116.901L48.4683 116.977C49.1859 117.239 49.7588 117.764 50.0812 118.457 50.4036 119.15 50.437 119.926 50.1754 120.644 50.1 120.85 50.0617 121.068 50.0617 121.288 50.0617 121.998 49.852 122.537 49.4713 122.803 49.0908 123.069 48.5136 123.082 47.8455 122.838L40.584 120.191C39.1298 119.661 38.3557 118.039 38.858 116.576 39.0977 115.879 39.6138 115.312 40.3112 114.979 41.0479 114.627 41.9044 114.584 42.6601 114.859L42.8264 114.92C43.3678 115.118 43.9705 115.056 44.4605 114.751 44.9507 114.447 45.2739 113.935 45.3372 113.362L46.5406 102.497C46.6591 101.428 46.095 100.377 45.1371 99.8829 40.7445 97.6143 36.8144 94.6138 33.4569 90.9658 32.7179 90.1622 31.5446 89.8999 30.5371 90.3135L21.6756 93.9475C21.1838 94.1492 20.8006 94.5495 20.6207 95.0495 20.4406 95.5495 20.4809 96.1023 20.7312 96.571 21.2936 97.6231 20.9641 98.9119 19.9651 99.5688 18.9353 100.246 17.4934 99.9295 16.752 98.8623L14.4822 95.5951C13.7542 94.5472 13.9275 93.1406 14.8767 92.3926 15.3674 92.0059 15.9764 91.8365 16.5901 91.9154 17.2086 91.9951 17.7557 92.3122 18.1312 92.8087 18.4709 93.2581 18.9944 93.5314 19.5576 93.5532 20.1187 93.5748 20.6635 93.3428 21.0368 92.9207L27.2783 85.8661C28.0108 85.0381 28.142 83.8307 27.6047 82.8603 26.9336 81.6499 26.3094 80.3753 25.7497 79.0717 25.3399 78.1185 24.2354 77.6774 23.2818 78.087 22.3284 78.4965 21.8875 79.6012 22.2968 80.5547 22.7986 81.7223 23.3479 82.8695 23.9346 83.9745L19.4641 89.0279C18.7452 88.587 17.9341 88.2994 17.0701 88.1882 15.4451 87.9795 13.8414 88.4244 12.551 89.441 10.0438 91.4169 9.53674 95.0617 11.3967 97.7386L13.6665 101.006C15.5606 103.732 19.3121 104.495 22.0303 102.708 24.0631 101.371 25.0428 99.039 24.7009 96.7674L31.234 94.088C34.5892 97.6111 38.4469 100.556 42.7205 102.856L41.8267 110.926C40.754 110.895 39.6749 111.118 38.6934 111.587 37.0782 112.357 35.8745 113.695 35.3044 115.355 34.1415 118.741 35.9326 122.493 39.2969 123.72L46.5584 126.368C47.2871 126.634 48.0194 126.765 48.7245 126.765 49.7866 126.765 50.7879 126.467 51.6258 125.881 52.9405 124.961 53.7265 123.419 53.8117 121.616 54.2989 120.045 54.1872 118.372 53.4878 116.87 53.0397 115.907 52.3821 115.084 51.5685 114.449L55.9801 107.529C62.3153 108.708 68.9212 108.535 75.1642 107.03L79.4513 113.037C77.764 114.564 77.0631 116.967 77.8374 119.203 78.3604 120.711 79.4466 121.907 80.896 122.569 82.3253 123.221 83.9807 123.261 85.4393 122.678L92.7598 119.749C95.6846 118.579 97.1849 115.379 96.1748 112.463 95.652 110.954 94.5659 109.759 93.1165 109.097 91.9273 108.554 90.5806 108.435 89.3216 108.747L88.1605 101.668C91.6771 99.5302 94.8863 96.9325 97.7172 93.9317L102.089 95.8518C101.967 98.0976 103.008 100.321 104.92 101.638 107.803 103.625 111.76 102.961 113.929 100.127L115.231 98.4255C116.297 97.0319 116.757 95.3065 116.526 93.567 116.294 91.8275 115.399 90.2822 114.006 89.2158 111.972 87.6599 109.318 87.4505 107.132 88.5274L104.25 85.1025C105.597 82.7303 106.733 80.2315 107.636 77.6551L115.005 77.3189C115.371 79.5652 117.008 81.459 119.305 82.0231 120.856 82.4041 122.45 82.1411 123.793 81.2839 125.117 80.4384 126.05 79.0699 126.352 77.5286L127.891 69.6836C128.504 66.5596 126.461 63.5195 123.337 62.9065v0z" fill="#f03f83"/><path d="M12.1048 67.9816 19.1469 69.6082C19.3002 70.5874 19.4898 71.5816 19.7128 72.5733 19.9089 73.4471 20.6844 74.041 21.5442 74.0408 21.6804 74.0408 21.819 74.0258 21.9575 73.9947 22.9698 73.7672 23.6063 72.7625 23.3788 71.7499 23.1201 70.5966 22.9099 69.4416 22.7546 68.3168 22.6065 67.2464 21.8014 66.3642 20.7516 66.1219L10.7778 63.8186C10.2235 63.6905 9.63931 63.8211 9.19217 64.1735 8.74477 64.5262 8.48149 65.0628 8.47648 65.6324L8.46621 66.8C8.45444 68.1071 7.38154 69.1708 6.07417 69.1708 5.45167 69.1708 4.86725 68.9273 4.42912 68.4852 3.99074 68.0428 3.75252 67.4566 3.75803 66.8341L3.82316 59.5886C3.82892 58.9242 4.11124 58.2742 4.59746 57.8053 5.05438 57.3644 5.63178 57.1279 6.24176 57.1459 7.5108 57.1795 8.53786 58.2406 8.53084 59.5114 8.52759 60.0868 8.78836 60.6322 9.23851 60.9909 9.68866 61.3499 10.2788 61.4826 10.8385 61.3509L20.7421 59.0287C21.7912 58.7827 22.5928 57.8982 22.7373 56.8275 23.468 51.4084 25.2263 46.2569 27.963 41.5154 28.5151 40.5579 28.4064 39.35 27.6912 38.5093L22.9685 32.9627C22.5993 32.5294 22.0564 32.2859 21.4838 32.3026 20.9144 32.3192 20.3831 32.593 20.0394 33.0471L19.6301 33.5882C19.3242 33.9925 18.8783 34.2468 18.3743 34.3047 17.8721 34.3623 17.3783 34.2145 16.9868 33.8883 16.2468 33.2718 16.1471 32.106 16.7646 31.2896L19.9104 27.1303C20.5211 26.3229 21.6749 26.1626 22.4823 26.7736 23.2383 27.3452 23.432 28.4191 22.9234 29.2185 22.6283 29.6826 22.5514 30.2525 22.713 30.7783 22.8746 31.3041 23.2584 31.7328 23.7629 31.9509L30.3669 34.8072C31.3907 35.2503 32.5858 34.9933 33.3408 34.1666 36.3473 30.8733 39.8323 28.0917 43.7001 25.8993 44.6369 25.3678 45.1592 24.2966 44.9999 23.233L43.4786 13.1107C43.394 12.5473 43.058 12.0528 42.5658 11.7662 42.0731 11.4794 41.4769 11.4318 40.946 11.6362L39.5049 12.1906C38.9854 12.39 38.4222 12.3692 37.919 12.1312 37.416 11.8935 37.0422 11.4699 36.8661 10.9386 36.5332 9.93457 37.1136 8.79053 38.1605 8.38797L45.5192 5.55755C46.0388 5.35765 46.6019 5.37894 47.1051 5.61692 47.6081 5.85465 47.9821 6.27825 48.1583 6.80956 48.4909 7.81357 47.9105 8.95762 46.8637 9.36042L46.6648 9.43708C46.1267 9.64424 45.7134 10.0869 45.5438 10.638 45.3744 11.1891 45.4671 11.7875 45.796 12.2612L51.5891 20.6125C52.2019 21.4957 53.3168 21.9173 54.3637 21.6611 57.6287 20.8615 61.006 20.4559 64.4058 20.4559H64.4068C65.5153 20.4559 66.509 19.7573 66.8795 18.7184L68.7976 13.3512C68.9697 12.8697 68.9381 12.3386 68.7099 11.8812 68.482 11.4236 68.0774 11.0784 67.5892 10.9258 66.1924 10.4889 65.3039 9.11719 65.4762 7.66427 65.5681 6.89123 65.9742 6.18757 66.6195 5.6828 67.2971 5.15274 68.1641 4.909 68.9995 5.01446L71.6338 5.34613C73.3412 5.56106 74.585 7.07134 74.4064 8.71263 74.2683 9.97966 73.3813 11.0072 72.1466 11.3304 71.2423 11.5671 70.6493 12.4328 70.7558 13.3617L71.4224 19.1778C71.5494 20.2878 72.3695 21.1951 73.464 21.4359 77.6604 22.3577 81.6817 23.9201 85.4149 26.0789 86.35 26.62 87.5399 26.5268 88.3763 25.848L96.3245 19.3963C96.7669 19.0373 97.0222 18.497 97.0192 17.9273 97.0159 17.358 96.7546 16.8204 96.3087 16.4662L95.0996 15.506C94.6637 15.16 94.3957 14.6641 94.3451 14.1092 94.2947 13.5553 94.4696 13.0183 94.8381 12.5967 95.5337 11.7998 96.814 11.7192 97.6928 12.4163L103.868 17.3189C104.304 17.6648 104.572 18.1608 104.622 18.7154 104.673 19.2693 104.498 19.8064 104.129 20.2282 103.433 21.0245 102.152 21.1052 101.275 20.4088L101.108 20.2765C100.656 19.9176 100.065 19.7863 99.5044 19.9201 98.9433 20.0539 98.4748 20.4379 98.2336 20.9617L93.9763 30.2032C93.5262 31.1806 93.7303 32.356 94.4836 33.1278 94.7506 33.4013 95.0144 33.6844 95.3283 34.0253 96.0309 34.7889 97.2196 34.838 97.9831 34.1351 98.7464 33.4322 98.7955 32.2438 98.0928 31.4802 97.9601 31.3357 97.8351 31.2004 97.7138 31.0709L100.806 24.359C102.969 25.0664 105.403 24.4825 106.959 22.7007 108.01 21.498 108.509 19.9617 108.364 18.3747 108.221 16.8101 107.434 15.3529 106.204 14.3765L100.029 9.47415C97.5618 7.51548 94.0387 7.8008 92.0081 10.1252 90.9575 11.3279 90.4585 12.8642 90.6033 14.4511 90.7221 15.7532 91.2869 16.9812 92.1827 17.9193L86.6151 22.4396C82.9778 20.4183 79.099 18.9101 75.0649 17.9479L74.6521 14.3439C76.5617 13.2878 77.9011 11.3429 78.1433 9.11969 78.5424 5.45284 75.8332 2.08785 72.1045 1.61816L69.4702 1.28649C67.6501 1.05753 65.767 1.58108 64.3064 2.72312 62.8665 3.84913 61.9572 5.44658 61.7465 7.22139 61.4399 9.80156 62.6303 12.267 64.6977 13.6613L63.6097 16.7051C60.4439 16.7593 57.2973 17.1373 54.2339 17.8314L50.0295 11.7703C51.7367 10.2662 52.4699 7.87269 51.7257 5.62719 51.2229 4.1114 50.1527 2.90148 48.7124 2.22011 47.292 1.54852 45.6372 1.48664 44.171 2.05052L36.8125 4.8807C33.8719 6.01146 32.329 9.19184 33.3002 12.121 33.8027 13.6367 34.8726 14.8467 36.3133 15.528 37.4951 16.0869 38.8391 16.2239 40.1031 15.9286L41.1692 23.0223C37.4596 25.2094 34.0848 27.9013 31.1194 31.0381L26.8776 29.2037C27.2223 27.1954 26.455 25.0664 24.7496 23.7763 23.558 22.875 22.0873 22.491 20.6068 22.6971 19.1268 22.9023 17.8154 23.6719 16.9144 24.8635L13.7683 29.0228C11.9274 31.4562 12.2849 34.8615 14.582 36.7751 15.7706 37.7653 17.2694 38.214 18.8034 38.0376 19.7706 37.9267 20.6895 37.5612 21.4665 36.9943l2.846 3.3429C21.6827 45.081 19.94 50.1912 19.1248 55.5485L11.855 57.2531C10.9725 55.0507 8.83721 53.4555 6.3412 53.3897 4.7162 53.3488 3.17636 53.9548 1.98798 55.1013.781563 56.2657.0806589 57.8887.0653782 59.5545L247728e-9 66.8005C-.0142814 68.433.610721 69.9709 1.75977 71.1305 2.90883 72.29 4.44115 72.9286 6.07392 72.9286 9.04237 72.9288 11.5411 70.7958 12.1048 67.9816v0z" fill="#f03f83"/><path d="M55.101 57.726C56.0176 57.2402 56.3671 56.103 55.8811 55.1861 55.3954 54.2698 54.2586 53.9196 53.341 54.4061 48.8513 56.7858 43.7338 56.1568 41.1744 52.9093 39.7382 51.0877 39.2443 48.6736 39.7833 46.1122 40.3485 43.4263 41.9647 40.9185 44.3342 39.0511 46.7032 37.1833 49.5193 36.1988 52.2626 36.275 54.8791 36.3489 57.1108 37.393 58.5472 39.2149 60.7035 41.9506 60.6762 46.034 58.4773 49.618 57.9347 50.5025 58.2115 51.6593 59.0963 52.2019 59.9806 52.7445 61.1374 52.4674 61.68 51.5832 64.7115 46.6423 64.6399 40.8745 61.4979 36.8887 59.3603 34.1768 56.1181 32.6249 52.3688 32.5192 48.7455 32.414 45.0672 33.6886 42.008 36.1001 38.9484 38.5117 36.8527 41.7928 36.1062 45.3384 35.3337 49.0088 36.0857 52.5238 38.2232 55.2355 40.474 58.0907 43.9983 59.5927 47.7899 59.5925 50.2055 59.5925 52.7293 58.9832 55.101 57.726v0z" fill="#f03f83"/><path d="M91.556 40.877C91.556 36.982 87.9312 33.8131 83.4758 33.8131 79.0203 33.8131 75.3953 36.982 75.3953 40.877 75.3953 44.7721 79.0203 47.9409 83.4758 47.9409 87.9312 47.9409 91.556 44.7721 91.556 40.877zM79.1531 40.877C79.1531 39.0539 81.0922 37.5706 83.476 37.5706 85.8595 37.5706 87.7987 39.0539 87.7987 40.877 87.7987 42.7002 85.8595 44.1834 83.476 44.1834 81.0922 44.1834 79.1531 42.7002 79.1531 40.877z" fill="#f03f83"/><path d="M69.7536 73.1665C69.7536 68.3929 65.87 64.5094 61.0964 64.5094 56.3226 64.5094 52.4391 68.3929 52.4391 73.1665 52.4391 77.9401 56.3226 81.8236 61.0964 81.8236 65.87 81.8236 69.7536 77.9401 69.7536 73.1665zM56.1969 73.1665C56.1969 70.4648 58.3948 68.2669 61.0967 68.2669 63.7981 68.2669 65.9963 70.4648 65.9963 73.1665 65.9963 75.8682 63.7984 78.0661 61.0967 78.0661 58.3948 78.0661 56.1969 75.8682 56.1969 73.1665v0z" fill="#f03f83"/><path d="M94.2462 69.6353C94.2462 65.9231 91.2261 62.9031 87.5139 62.9031 83.8019 62.9031 80.7819 65.9231 80.7819 69.6353 80.7819 73.3475 83.8019 76.3675 87.5139 76.3675 91.2261 76.3673 94.2462 73.3475 94.2462 69.6353zM84.5392 69.6353C84.5392 67.995 85.8736 66.6606 87.5136 66.6606 89.1539 66.6606 90.4884 67.995 90.4884 69.6353 90.4884 71.2756 89.1539 72.61 87.5136 72.61 85.8738 72.6098 84.5392 71.2756 84.5392 69.6353z" fill="#f03f83"/><path d="M69.59 99.917C73.2275 99.917 76.1872 96.9575 76.1872 93.3197 76.1872 89.6822 73.2278 86.7225 69.59 86.7225 65.9522 86.7225 62.9925 89.682 62.9925 93.3197 62.9925 96.9575 65.9519 99.917 69.59 99.917zM69.59 90.4801C71.1559 90.4801 72.4297 91.7539 72.4297 93.3197 72.4297 94.8856 71.1559 96.1594 69.59 96.1594 68.0241 96.1594 66.75 94.8856 66.75 93.3197 66.75 91.7539 68.0241 90.4801 69.59 90.4801z" fill="#f03f83"/><path d="M40.0654 88.8272C43.8116 88.8272 46.8595 85.7794 46.8595 82.0331 46.8595 78.2869 43.8116 75.239 40.0654 75.239 36.3191 75.239 33.2712 78.2869 33.2712 82.0331 33.2712 85.7794 36.3191 88.8272 40.0654 88.8272zM40.0654 78.9965C41.74 78.9965 43.1019 80.3588 43.1019 82.0331 43.1019 83.7075 41.7397 85.0697 40.0654 85.0697 38.391 85.0697 37.0288 83.7075 37.0288 82.0331 37.0288 80.3588 38.391 78.9965 40.0654 78.9965z" fill="#f03f83"/><path d="M78.3227 58.52C78.3227 57.4824 77.4818 56.6412 76.4439 56.6412H74.7831C73.7453 56.6412 72.9044 57.4824 72.9044 58.52 72.9044 59.5576 73.7453 60.3988 74.7831 60.3988H76.4439C77.4818 60.3988 78.3227 59.5576 78.3227 58.52z" fill="#f03f83"/><path d="M52.6116 93.2397H54.318C55.3559 93.2397 56.1968 92.3985 56.1968 91.3609 56.1968 90.3234 55.3559 89.4822 54.318 89.4822H52.6116C51.5738 89.4822 50.7328 90.3234 50.7328 91.3609 50.7328 92.3985 51.574 93.2397 52.6116 93.2397z" fill="#f03f83"/><path d="M36.7938 65.8795C37.8316 65.8795 38.6725 65.0383 38.6725 64.0007 38.6725 62.9631 37.8316 62.1219 36.7938 62.1219H35.15C34.1122 62.1219 33.2712 62.9631 33.2712 64.0007 33.2712 65.0383 34.1122 65.8795 35.15 65.8795H36.7938z" fill="#f03f83"/><path d="M70.1623 33.0094C71.2002 33.0094 72.0411 32.1682 72.0411 31.1306 72.0411 30.093 71.2002 29.2518 70.1623 29.2518H67.8747C66.8369 29.2518 65.996 30.093 65.996 31.1306 65.996 32.1682 66.8369 33.0094 67.8747 33.0094H70.1623z" fill="#f03f83"/><path d="M82.6603 83.366C81.6225 83.366 80.7816 84.2072 80.7816 85.2447 80.7816 86.2823 81.6225 87.1235 82.6603 87.1235H85.1864C86.2243 87.1235 87.0652 86.2823 87.0652 85.2447 87.0652 84.2072 86.2243 83.366 85.1864 83.366H82.6603z" fill="#f03f83"/></svg>